<?xml version="1.0" encoding="UTF-8"?>
<svg width="12px" height="10px" viewBox="0 0 12 10" version="1.1" xmlns="http://www.w3.org/2000/svg" xmlns:xlink="http://www.w3.org/1999/xlink">
    <!-- Generator: Sketch 58 (84663) - https://sketch.com -->
    <title>Icon - Filter</title>
    <desc>Created with Sketch.</desc>
    <defs>
        <path d="M7,9 C7.553,9 8,9.448 8,10 C8,10.552 7.553,11 7,11 L5,11 C4.447,11 4,10.552 4,10 C4,9.448 4.447,9 5,9 L7,9 Z M9,5 C9.553,5 10,5.448 10,6 C10,6.552 9.553,7 9,7 L3,7 C2.447,7 2,6.552 2,6 C2,5.448 2.447,5 3,5 L9,5 Z M11,1 C11.553,1 12,1.448 12,2 C12,2.552 11.553,3 11,3 L1,3 C0.447,3 0,2.552 0,2 C0,1.448 0.447,1 1,1 L11,1 Z" id="path-1"></path>
    </defs>
    <g id="✂️-Iconography" stroke="none" stroke-width="1" fill="none" fill-rule="evenodd">
        <g id="Standard" transform="translate(-364.000000, -439.000000)">
            <g id="Controls" transform="translate(60.000000, 316.000000)">
                <g id="Icons" transform="translate(40.000000, 70.000000)">
                    <g id="Standard-/-Filter" transform="translate(264.000000, 52.000000)">
                        <mask id="mask-2" fill="white">
                            <use xlink:href="#path-1"></use>
                        </mask>
                        <g id="Mask"></g>
                        <g id="Icon-/-Primary" mask="url(#mask-2)" fill="#22272E" fill-rule="evenodd">
                            <g id="Color-/-Dark-Grey-1">
                                <rect id="Color" x="0" y="0" width="12" height="12"></rect>
                            </g>
                        </g>
                    </g>
                </g>
            </g>
        </g>
    </g>
</svg>