<?xml version="1.0" encoding="UTF-8"?>
<svg width="14px" height="14px" viewBox="0 0 14 14" version="1.1" xmlns="http://www.w3.org/2000/svg" xmlns:xlink="http://www.w3.org/1999/xlink">
    <!-- Generator: Sketch 58 (84663) - https://sketch.com -->
    <title>Menu</title>
    <desc>Created with Sketch.</desc>
    <g id="✂️-Templates" stroke="none" stroke-width="1" fill="none" fill-rule="evenodd">
        <g id="Page-With-Table---Actions" transform="translate(-20.000000, -23.000000)" fill="#7C8D9F">
            <g id="Header">
                <g id="Left" transform="translate(20.000000, 14.000000)">
                    <path d="M12.9931545,21 C13.509501,21 13.9350657,21.3827202 13.9932262,21.8826674 L14,22 C14,22.5522847 13.5500512,23 12.9931545,23 L1.00684547,23 C0.450780073,23 0,22.5561352 0,22 C0,21.4477153 0.449948758,21 1.00684547,21 L12.9931545,21 Z M12.9931545,15 C13.509501,15 13.9350657,15.3827202 13.9932262,15.8826674 L14,16 C14,16.5522847 13.5500512,17 12.9931545,17 L1.00684547,17 C0.450780073,17 0,16.5561352 0,16 C0,15.4477153 0.449948758,15 1.00684547,15 L12.9931545,15 Z M12.9931545,9 C13.509501,9 13.9350657,9.38272018 13.9932262,9.88266744 L14,10 C14,10.5522847 13.5500512,11 12.9931545,11 L1.00684547,11 C0.450780073,11 0,10.5561352 0,10 C0,9.44771525 0.449948758,9 1.00684547,9 L12.9931545,9 Z" id="Menu"></path>
                </g>
            </g>
        </g>
    </g>
</svg>