<?xml version="1.0" encoding="UTF-8"?>
<svg width="14px" height="14px" viewBox="0 0 14 14" version="1.1" xmlns="http://www.w3.org/2000/svg" xmlns:xlink="http://www.w3.org/1999/xlink">
    <!-- Generator: Sketch 58 (84663) - https://sketch.com -->
    <title>Back</title>
    <desc>Created with Sketch.</desc>
    <defs>
        <path d="M2.18933983,3.5 L0.219669914,1.53033009 C-0.0732233047,1.23743687 -0.0732233047,0.762563133 0.219669914,0.469669914 C0.512563133,0.176776695 0.987436867,0.176776695 1.28033009,0.469669914 L3.78033009,2.96966991 C4.0732233,3.26256313 4.0732233,3.73743687 3.78033009,4.03033009 L1.28033009,6.53033009 C0.987436867,6.8232233 0.512563133,6.8232233 0.219669914,6.53033009 C-0.0732233047,6.23743687 -0.0732233047,5.76256313 0.219669914,5.46966991 L2.18933983,3.5 Z" id="path-1"></path>
    </defs>
    <g id="✂️-Templates" stroke="none" stroke-width="1" fill="none" fill-rule="evenodd">
        <g id="Page-With-Table---Idle" transform="translate(-1007.000000, -133.000000)">
            <g id="Toolbar" transform="translate(260.000000, 80.000000)">
                <g id="Pagination" transform="translate(747.000000, 52.000000)">
                    <g id="Back" transform="translate(0.000000, 1.000000)">
                        <rect id="Button" fill="#22A5F7" x="0" y="0" width="14" height="14" rx="7"></rect>
                        <g id="Special-/-Chevron-Left" transform="translate(4.500000, 3.500000)">
                            <mask id="mask-2" fill="white">
                                <use xlink:href="#path-1"></use>
                            </mask>
                            <g id="Mask" fill-rule="nonzero" transform="translate(2.000000, 3.500000) scale(-1, 1) translate(-2.000000, -3.500000) "></g>
                            <g id="Icon-/-Reversed" mask="url(#mask-2)" fill="#FFFFFF" fill-rule="evenodd">
                                <g id="Color-/-White">
                                    <polygon id="Color" points="0 0 4 0 4 7 0 7"></polygon>
                                </g>
                            </g>
                        </g>
                    </g>
                </g>
            </g>
        </g>
    </g>
</svg>