<?xml version="1.0" encoding="UTF-8"?>
<svg width="8px" height="8px" viewBox="0 0 8 8" version="1.1" xmlns="http://www.w3.org/2000/svg" xmlns:xlink="http://www.w3.org/1999/xlink">
    <!-- Generator: Sketch 58 (84663) - https://sketch.com -->
    <title>Plus Icon</title>
    <desc>Created with Sketch.</desc>
    <defs>
        <path d="M4,0 C4.55228475,-1.01453063e-16 5,0.44771525 5,1 L5,3 L7,3 C7.55228475,3 8,3.44771525 8,4 C8,4.55228475 7.55228475,5 7,5 L5,5 L5,7 C5,7.55228475 4.55228475,8 4,8 C3.44771525,8 3,7.55228475 3,7 L3,5 L1,5 C0.44771525,5 6.76353751e-17,4.55228475 0,4 C-6.76353751e-17,3.44771525 0.44771525,3 1,3 L3,3 L3,1 C3,0.44771525 3.44771525,1.01453063e-16 4,0 Z" id="path-1"></path>
    </defs>
    <g id="✂️-Templates" stroke="none" stroke-width="1" fill="none" fill-rule="evenodd">
        <g id="Page-With-Table---Idle" transform="translate(-275.000000, -92.000000)">
            <g id="Toolbar" transform="translate(260.000000, 80.000000)">
                <g id="Actions">
                    <g id="Create-VM-Button">
                        <g id="Special-/-Plus-Mini" transform="translate(15.000000, 12.000000)">
                            <mask id="mask-2" fill="white">
                                <use xlink:href="#path-1"></use>
                            </mask>
                            <g id="Mask"></g>
                            <g id="Icon-/-Reversed" mask="url(#mask-2)" fill="#FFFFFF" fill-rule="evenodd">
                                <g id="Color-/-White">
                                    <polygon id="Color" points="0 0 8 0 8 8 0 8"></polygon>
                                </g>
                            </g>
                        </g>
                    </g>
                </g>
            </g>
        </g>
    </g>
</svg>