<?xml version="1.0" encoding="UTF-8"?>
<svg width="12px" height="12px" viewBox="0 0 12 12" version="1.1" xmlns="http://www.w3.org/2000/svg" xmlns:xlink="http://www.w3.org/1999/xlink">
    <!-- Generator: Sketch 58 (84663) - https://sketch.com -->
    <title>Search Icon</title>
    <desc>Created with Sketch.</desc>
    <defs>
        <path d="M9.17160346,7.7573899 L11.7071068,10.2928932 C12.0976311,10.6834175 12.0976311,11.3165825 11.7071068,11.7071068 C11.3165825,12.0976311 10.6834175,12.0976311 10.2928932,11.7071068 L7.7573899,9.17160346 C6.96695688,9.69512324 6.01908233,10 5,10 C2.23857625,10 0,7.76142375 0,5 C0,2.23857625 2.23857625,0 5,0 C7.76142375,0 10,2.23857625 10,5 C10,6.01908233 9.69512324,6.96695688 9.17160346,7.7573899 Z M5,8 C6.65685425,8 8,6.65685425 8,5 C8,3.34314575 6.65685425,2 5,2 C3.34314575,2 2,3.34314575 2,5 C2,6.65685425 3.34314575,8 5,8 Z" id="path-1"></path>
    </defs>
    <g id="✂️-Templates" stroke="none" stroke-width="1" fill="none" fill-rule="evenodd">
        <g id="Page-With-Table---Actions" transform="translate(-64.000000, -24.000000)">
            <g id="Header">
                <g id="Left" transform="translate(20.000000, 14.000000)">
                    <g id="Search" transform="translate(34.000000, 0.000000)">
                        <g id="Standard-/-Search" transform="translate(10.000000, 10.000000)">
                            <mask id="mask-2" fill="white">
                                <use xlink:href="#path-1"></use>
                            </mask>
                            <g id="Mask" fill-rule="nonzero"></g>
                            <g id="Icon-/-Dark-Bg-/-Secondary" mask="url(#mask-2)" fill="#7C8D9F" fill-rule="evenodd">
                                <g id="Color-/-Grey-2">
                                    <polygon id="Color" points="0 0 12 0 12 12 0 12"></polygon>
                                </g>
                            </g>
                        </g>
                    </g>
                </g>
            </g>
        </g>
    </g>
</svg>